<svg width="20" height="16" viewBox="0 0 20 16" fill="none" xmlns="http://www.w3.org/2000/svg">
<path d="M2.25 2.75C2.25 2.28587 2.43437 1.84075 2.76256 1.51256C3.09075 1.18437 3.53587 1 4 1C4.46413 1 4.90925 1.18437 5.23744 1.51256C5.56563 1.84075 5.75 2.28587 5.75 2.75C5.75 3.21413 5.56563 3.65925 5.23744 3.98744C4.90925 4.31563 4.46413 4.5 4 4.5C3.53587 4.5 3.09075 4.31563 2.76256 3.98744C2.43437 3.65925 2.25 3.21413 2.25 2.75ZM2 7.67812C1.6875 8.02812 1.5 8.49375 1.5 9C1.5 9.50625 1.6875 9.97187 2 10.3219V7.675V7.67812ZM6.5125 6.1375C5.58437 6.95937 5 8.1625 5 9.5C5 10.5719 5.375 11.5562 6 12.3281V13C6 13.5531 5.55312 14 5 14H3C2.44688 14 2 13.5531 2 13V12.1625C0.81875 11.6 0 10.3969 0 9C0 7.06563 1.56562 5.5 3.5 5.5H4.5C5.25 5.5 5.94375 5.73438 6.5125 6.13438V6.1375ZM14 13V12.3281C14.625 11.5562 15 10.5719 15 9.5C15 8.1625 14.4156 6.95937 13.4875 6.13438C14.0563 5.73438 14.75 5.5 15.5 5.5H16.5C18.4344 5.5 20 7.06563 20 9C20 10.3969 19.1812 11.6 18 12.1625V13C18 13.5531 17.5531 14 17 14H15C14.4469 14 14 13.5531 14 13ZM14.25 2.75C14.25 2.28587 14.4344 1.84075 14.7626 1.51256C15.0908 1.18437 15.5359 1 16 1C16.4641 1 16.9092 1.18437 17.2374 1.51256C17.5656 1.84075 17.75 2.28587 17.75 2.75C17.75 3.21413 17.5656 3.65925 17.2374 3.98744C16.9092 4.31563 16.4641 4.5 16 4.5C15.5359 4.5 15.0908 4.31563 14.7626 3.98744C14.4344 3.65925 14.25 3.21413 14.25 2.75ZM18 7.67812V10.325C18.3125 9.97188 18.5 9.50938 18.5 9.00313C18.5 8.49688 18.3125 8.03125 18 7.68125V7.67812ZM10 1C10.5304 1 11.0391 1.21071 11.4142 1.58579C11.7893 1.96086 12 2.46957 12 3C12 3.53043 11.7893 4.03914 11.4142 4.41421C11.0391 4.78929 10.5304 5 10 5C9.46957 5 8.96086 4.78929 8.58579 4.41421C8.21071 4.03914 8 3.53043 8 3C8 2.46957 8.21071 1.96086 8.58579 1.58579C8.96086 1.21071 9.46957 1 10 1ZM7.5 9.5C7.5 10.0063 7.6875 10.4688 8 10.8219V8.175C7.6875 8.52813 7.5 8.99062 7.5 9.49687V9.5ZM12 8.17813V10.825C12.3125 10.4719 12.5 10.0094 12.5 9.50313C12.5 8.99688 12.3125 8.53125 12 8.18125V8.17813ZM14 9.5C14 10.8969 13.1812 12.1 12 12.6625V14C12 14.5531 11.5531 15 11 15H9C8.44687 15 8 14.5531 8 14V12.6625C6.81875 12.1 6 10.8969 6 9.5C6 7.56563 7.56563 6 9.5 6H10.5C12.4344 6 14 7.56563 14 9.5Z" fill="#FFD700"/>
</svg>
