<svg width="32" height="32" viewBox="0 0 32 32" fill="none" xmlns="http://www.w3.org/2000/svg">
<rect width="32" height="32" rx="16" fill="#2ECC71"/>
<g clip-path="url(#clip0_863_21)">
<path d="M13.1531 8.76848C12.9125 8.18723 12.2781 7.87785 11.6719 8.04348L8.92188 8.79348C8.37813 8.94348 8 9.43723 8 9.99973C8 17.731 14.2688 23.9997 22 23.9997C22.5625 23.9997 23.0563 23.6216 23.2063 23.0779L23.9563 20.3279C24.1219 19.7216 23.8125 19.0872 23.2312 18.8466L20.2312 17.5966C19.7219 17.3841 19.1313 17.531 18.7844 17.9591L17.5219 19.4997C15.3219 18.4591 13.5406 16.6779 12.5 14.4779L14.0406 13.2185C14.4688 12.8685 14.6156 12.281 14.4031 11.7716L13.1531 8.7716V8.76848Z" fill="white"/>
</g>
<defs>
<clipPath id="clip0_863_21">
<rect width="16" height="16" fill="white" transform="translate(8 8)"/>
</clipPath>
</defs>
</svg>
