<svg width="31" height="32" viewBox="0 0 31 32" fill="none" xmlns="http://www.w3.org/2000/svg">
<path d="M15.5 0.5C6.93956 0.5 0 7.43956 0 16C0 24.5604 6.93956 31.5 15.5 31.5C24.0604 31.5 31 24.5604 31 16C31 7.43956 24.0604 0.5 15.5 0.5ZM22.6845 11.0413C22.4513 13.4922 21.4419 19.4399 20.9282 22.185C20.711 23.3465 20.2831 23.736 19.869 23.7741C18.969 23.8569 18.2854 23.1793 17.4136 22.6077C16.0494 21.7135 15.2787 21.1568 13.9544 20.2842C12.4241 19.2757 13.4162 18.7217 14.2883 17.8154C14.5166 17.5784 18.4825 13.9711 18.5592 13.6438C18.5688 13.6029 18.578 13.4501 18.4871 13.3698C18.3962 13.2896 18.2628 13.3168 18.1662 13.3386C18.0294 13.3696 15.8501 14.8101 11.6282 17.6599C11.0096 18.0847 10.4494 18.2916 9.94731 18.2808C9.39388 18.2689 8.32931 17.9679 7.53788 17.7106C6.56719 17.3951 5.79569 17.2283 5.86287 16.6924C5.89787 16.4133 6.28225 16.1279 7.016 15.8362C11.5346 13.8675 14.5477 12.5696 16.0553 11.9424C20.3598 10.152 21.2542 9.841 21.8372 9.83062C21.9654 9.8285 22.2521 9.86025 22.4378 10.0109C22.5613 10.1183 22.6401 10.2681 22.6584 10.4307C22.6899 10.6326 22.6986 10.8374 22.6845 11.0413Z" fill="#24A1DE"/>
</svg>
