<svg width="14" height="16" viewBox="0 0 14 16" fill="none" xmlns="http://www.w3.org/2000/svg">
<path d="M2 1C0.896875 1 0 1.89688 0 3V13C0 14.1031 0.896875 15 2 15H12C13.1031 15 14 14.1031 14 13V3C14 1.89688 13.1031 1 12 1H2ZM6.8125 8.49063L2.00625 5.3875C2.0625 4.8875 2.48438 4.5 3 4.5H11C11.5156 4.5 11.9375 4.8875 11.9937 5.3875L7.1875 8.49063C7.13125 8.52813 7.06562 8.54688 7 8.54688C6.93438 8.54688 6.86875 8.52813 6.8125 8.49063ZM7.73125 9.33125L12 6.575V10.5C12 11.0531 11.5531 11.5 11 11.5H3C2.44687 11.5 2 11.0531 2 10.5V6.575L6.26875 9.33125C6.4875 9.47188 6.74062 9.54688 7 9.54688C7.25938 9.54688 7.5125 9.47188 7.73125 9.33125Z" fill="#757575"/>
</svg>
