<svg width="21" height="24" viewBox="0 0 21 24" fill="none" xmlns="http://www.w3.org/2000/svg">
<path d="M3 1.5C1.34531 1.5 0 2.84531 0 4.5V19.5C0 21.1547 1.34531 22.5 3 22.5H18C19.6547 22.5 21 21.1547 21 19.5V4.5C21 2.84531 19.6547 1.5 18 1.5H3ZM10.2188 12.7359L3.00937 8.08125C3.09375 7.33125 3.72656 6.75 4.5 6.75H16.5C17.2734 6.75 17.9062 7.33125 17.9906 8.08125L10.7812 12.7359C10.6969 12.7922 10.5984 12.8203 10.5 12.8203C10.4016 12.8203 10.3031 12.7922 10.2188 12.7359ZM11.5969 13.9969L18 9.8625V15.75C18 16.5797 17.3297 17.25 16.5 17.25H4.5C3.67031 17.25 3 16.5797 3 15.75V9.8625L9.40313 13.9969C9.73125 14.2078 10.1109 14.3203 10.5 14.3203C10.8891 14.3203 11.2687 14.2078 11.5969 13.9969Z" fill="#757575"/>
</svg>
