<svg width="14" height="16" viewBox="0 0 14 16" fill="none" xmlns="http://www.w3.org/2000/svg">
<path d="M2 1C0.896875 1 0 1.89688 0 3V13C0 14.1031 0.896875 15 2 15H12C13.1031 15 14 14.1031 14 13V3C14 1.89688 13.1031 1 12 1H2ZM4.83437 4.02187C5.1375 3.94062 5.45625 4.09375 5.575 4.38438L6.2 5.88438C6.30625 6.14063 6.23125 6.43438 6.01875 6.60938L5.25 7.24062C5.76875 8.34062 6.65938 9.23125 7.75938 9.75L8.39062 8.97812C8.56562 8.76562 8.85938 8.69062 9.11563 8.79688L10.6156 9.42188C10.9063 9.54375 11.0594 9.85938 10.9781 10.1625L10.6031 11.5375C10.5281 11.8125 10.2812 12 10 12C6.13438 12 3 8.86562 3 5C3 4.71875 3.1875 4.47187 3.45937 4.39687L4.83437 4.02187Z" fill="#757575"/>
</svg>
