<svg width="21" height="24" viewBox="0 0 21 24" fill="none" xmlns="http://www.w3.org/2000/svg">
<path d="M3 1.5C1.34531 1.5 0 2.84531 0 4.5V19.5C0 21.1547 1.34531 22.5 3 22.5H18C19.6547 22.5 21 21.1547 21 19.5V4.5C21 2.84531 19.6547 1.5 18 1.5H3ZM7.25156 6.03281C7.70625 5.91094 8.18437 6.14062 8.3625 6.57656L9.3 8.82656C9.45937 9.21094 9.34688 9.65156 9.02813 9.91406L7.875 10.8609C8.65312 12.5109 9.98906 13.8469 11.6391 14.625L12.5859 13.4672C12.8484 13.1484 13.2891 13.0359 13.6734 13.1953L15.9234 14.1328C16.3594 14.3156 16.5891 14.7891 16.4672 15.2438L15.9047 17.3063C15.7922 17.7188 15.4219 18 15 18C9.20156 18 4.5 13.2984 4.5 7.5C4.5 7.07812 4.78125 6.70781 5.18906 6.59531L7.25156 6.03281Z" fill="#757575"/>
</svg>
