<svg width="194" height="176" viewBox="0 0 194 176" fill="none" xmlns="http://www.w3.org/2000/svg">
<g clip-path="url(#clip0_234_494)">
<path d="M11.6544 68.6878L9.36381 67.7257L13.199 58.5306L17.7803 60.4549C20.2082 61.4749 21.5178 64.4023 20.444 66.9768L17.5675 73.8732C16.5416 76.3329 13.6571 77.6337 11.0687 76.5464L4.19681 73.6599C1.76874 72.6398 0.459272 69.7125 1.53311 67.1379L4.40947 60.2415C5.43537 57.7819 8.33694 56.5692 10.9083 57.5683L9.94953 59.8671C8.68968 59.3378 7.22744 59.9393 6.70011 61.2037L3.82374 68.1C3.29642 69.3644 3.89574 70.8319 5.15559 71.3609L12.0275 74.2477C13.2874 74.7768 14.7496 74.1754 15.2769 72.911L18.1532 66.0146C18.6806 64.7504 18.0814 63.2829 16.8214 62.7536L14.5308 61.7915L11.6544 68.6878Z" fill="#FAFAFA"/>
<path fill-rule="evenodd" clip-rule="evenodd" d="M11.8627 69.1974L8.85627 67.9345L12.991 58.0209L17.9302 60.0957C20.5489 61.1958 21.9615 64.3473 20.802 67.1271L17.9257 74.0235C16.8199 76.6746 13.7121 78.0788 10.9191 76.9056L4.04718 74.019C1.42843 72.9189 0.0159029 69.7674 1.17538 66.9874L4.05174 60.0912C5.16206 57.4291 8.28917 56.133 11.0486 57.2052L11.4203 57.3496L10.1578 60.3767L9.7999 60.2262C8.73771 59.7801 7.5028 60.288 7.0582 61.354L4.18184 68.2504C3.73724 69.3164 4.24341 70.5557 5.30559 71.0018L12.1775 73.8885C13.2397 74.3346 14.4746 73.8266 14.9192 72.7607L17.7955 65.8643C18.2402 64.7983 17.734 63.559 16.6719 63.1129L14.7391 62.301L11.8627 69.1974ZM14.531 61.7915L16.8216 62.7536C18.0815 63.2828 18.6808 64.7503 18.1534 66.0146L15.2771 72.911C14.7498 74.1754 13.2875 74.7767 12.0277 74.2476L5.15577 71.3609C3.89592 70.8318 3.2966 69.3644 3.82392 68.1L6.70029 61.2037C7.22761 59.9393 8.68986 59.3378 9.94971 59.867L10.9085 57.5683C10.7866 57.5209 10.6641 57.4786 10.5409 57.441C8.06633 56.6869 5.38694 57.8983 4.40965 60.2415L1.53329 67.1379C0.45945 69.7125 1.76892 72.6398 4.19699 73.6598L11.0689 76.5464C13.6573 77.6337 16.5418 76.3329 17.5677 73.8732L20.4442 66.9768C21.518 64.4022 20.2084 61.4749 17.7805 60.4549L13.1991 58.5305L9.36399 67.7257L11.6546 68.6878L14.531 61.7915Z" fill="#FAFAFA"/>
<path d="M33.3141 38.7182L27.7672 33.7276C26.7504 32.8127 25.1724 32.8991 24.2606 33.9196L19.2879 39.4862C18.3761 40.5067 18.4622 42.0904 19.4792 43.0053L25.0261 47.9957C26.043 48.9108 27.6209 48.8243 28.5325 47.8038L33.5054 42.2373C34.4171 41.2166 34.331 39.6331 33.3141 38.7182ZM29.4249 31.8721L34.9718 36.8626C37.0055 38.6925 37.1778 41.8596 35.3543 43.9007L30.3816 49.4673C28.5415 51.5269 25.4208 51.6978 23.3684 49.8514L17.8216 44.8607C15.7877 43.031 15.6155 39.8638 17.4388 37.8228L22.4117 32.2562C24.1688 30.2892 27.4095 30.0588 29.4249 31.8721Z" fill="#FAFAFA"/>
<path fill-rule="evenodd" clip-rule="evenodd" d="M33.0548 39.0078L27.508 34.0173C26.6507 33.2459 25.318 33.3189 24.5494 34.1793L19.5765 39.7459C18.8079 40.6062 18.8806 41.9437 19.7379 42.715L25.2848 47.7056C26.1422 48.4769 27.4748 48.404 28.2435 47.5436L33.2163 41.977C33.985 41.1165 33.9122 39.7792 33.0548 39.0078ZM29.6836 31.582L35.2304 36.5724C37.4239 38.5458 37.6095 41.9591 35.6431 44.1604L30.6702 49.7269C28.6872 51.9467 25.3211 52.131 23.1092 50.1409L17.5623 45.1505C15.369 43.1769 15.1834 39.7636 17.1498 37.5625L22.1226 31.9959C24.0202 29.8718 27.506 29.6226 29.6836 31.582ZM27.767 33.7273L33.3139 38.7179C34.3307 39.6328 34.4169 41.2163 33.5052 42.237L28.5323 47.8036C27.6207 48.824 26.0428 48.9105 25.0259 47.9954L19.479 43.005C18.462 42.0901 18.3759 40.5064 19.2877 39.4859L24.2604 33.9193C25.1722 32.8988 26.7502 32.8124 27.767 33.7273ZM34.9716 36.8623L29.4247 31.8718C27.4093 30.0585 24.1686 30.2889 22.4115 32.2559L17.4386 37.8225C15.6153 39.8635 15.7874 43.0307 17.8213 44.8605L23.3682 49.8511C25.4206 51.6975 28.5413 51.5266 30.3814 49.467L35.3541 43.9004C37.1776 41.8593 37.0053 38.6922 34.9716 36.8623Z" fill="#FAFAFA"/>
<path d="M39.6651 16.7998L47.0534 29.7842L59.9918 22.3697L61.2232 24.5337L46.1284 33.184L37.5088 18.0355L39.6651 16.7998Z" fill="#FAFAFA"/>
<path fill-rule="evenodd" clip-rule="evenodd" d="M39.8094 16.2686L47.1975 29.2528L60.1359 21.8383L61.752 24.6787L45.9836 33.7151L36.979 17.8904L39.8094 16.2686ZM47.053 29.7841L39.6647 16.7997L37.5084 18.0354L46.128 33.1839L61.2228 24.5335L59.9914 22.3695L47.053 29.7841Z" fill="#FAFAFA"/>
<path d="M82.8919 13.0534L81.4682 5.71512C81.2072 4.36976 79.8968 3.48333 78.5562 3.74527L68.8064 5.65029L71.1792 17.8808L80.9291 15.9758C82.2697 15.7138 83.1529 14.3988 82.8919 13.0534ZM83.9056 5.23886L85.3293 12.5772C85.8323 15.17 84.1335 17.8885 81.4037 18.4219L69.2164 20.8032L65.8945 3.68045L78.0816 1.29917C80.6896 0.789571 83.3056 2.53798 83.9056 5.23886Z" fill="#FAFAFA"/>
<path fill-rule="evenodd" clip-rule="evenodd" d="M84.2865 5.16437L85.7101 12.5027C86.2527 15.2992 84.4254 18.2281 81.4777 18.8041L68.9097 21.2597L65.4395 3.3726L78.0074 0.916894C80.8302 0.365362 83.6405 2.25567 84.2843 5.15408L84.2865 5.16437ZM82.511 13.1278L81.0873 5.78947C80.8673 4.65519 79.7605 3.90656 78.6304 4.1274L69.2614 5.95802L71.486 17.4241L80.8548 15.5935C81.9852 15.3727 82.7311 14.262 82.511 13.1278ZM71.1792 17.8808L68.8064 5.65022L78.5562 3.7452C79.8968 3.48326 81.2072 4.36969 81.4682 5.71505L82.8918 13.0534C83.1529 14.3987 82.2697 15.7138 80.929 15.9758L71.1792 17.8808ZM85.3293 12.5771L83.9056 5.23879C83.3056 2.53791 80.6896 0.789502 78.0816 1.2991L65.8945 3.68038L69.2164 20.8031L81.4036 18.4218C84.1334 17.8884 85.8323 15.17 85.3293 12.5771Z" fill="#FAFAFA"/>
<path d="M126.332 17.3839C125.586 19.9171 122.829 21.5421 120.161 20.751L113.017 18.632C110.422 17.8621 108.938 15.1614 109.662 12.4397L112.044 13.146C111.657 14.4604 112.411 15.8537 113.721 16.2421L120.865 18.3611C122.175 18.7496 123.563 17.992 123.95 16.6776C124.338 15.3632 123.583 13.9699 122.273 13.5814L115.129 11.4625C112.581 10.7067 110.978 7.97069 111.774 5.27017C112.52 2.73693 115.277 1.11203 117.944 1.90311L125.088 4.02206C127.636 4.77783 129.153 7.54047 128.443 10.2144L126.062 9.50807C126.449 8.19367 125.694 6.80038 124.384 6.41191L117.24 4.29296C115.93 3.90448 114.542 4.66206 114.155 5.97649C113.768 7.29089 114.523 8.68416 115.833 9.07264L122.977 11.1916C125.477 11.9332 127.113 14.7312 126.332 17.3839Z" fill="#FAFAFA"/>
<path fill-rule="evenodd" clip-rule="evenodd" d="M109.39 11.953L112.525 12.883L112.415 13.2564C112.089 14.3646 112.727 15.5413 113.831 15.8688L120.975 17.9877C122.079 18.3152 123.252 17.6754 123.578 16.5672C123.904 15.4591 123.267 14.2824 122.163 13.9549L115.018 11.8359C112.272 11.0214 110.543 8.07384 111.401 5.15984C112.206 2.42766 115.174 0.675572 118.054 1.52973L125.198 3.64868C127.956 4.46665 129.58 7.4452 128.818 10.3147L128.715 10.7012L125.579 9.77116L125.69 9.39775C126.016 8.28957 125.378 7.11289 124.274 6.78536L117.13 4.6664C116.026 4.33888 114.853 4.9787 114.527 6.08687C114.2 7.19507 114.838 8.37174 115.942 8.69928L123.086 10.8182C125.785 11.6187 127.548 14.6282 126.704 17.4943C125.899 20.2265 122.931 21.9785 120.051 21.1244L112.907 19.0055C110.102 18.1735 108.511 15.2568 109.287 12.3393L109.39 11.953ZM126.062 9.50811C126.449 8.1937 125.694 6.80042 124.384 6.41194L117.24 4.293C115.93 3.90452 114.542 4.6621 114.155 5.97652C113.768 7.29093 114.523 8.6842 115.832 9.07268L122.976 11.1916C125.477 11.9333 127.113 14.7312 126.331 17.384C125.585 19.9171 122.828 21.5421 120.161 20.751L113.017 18.632C110.542 17.8981 109.079 15.409 109.575 12.82C109.599 12.6934 109.628 12.5666 109.662 12.4397L112.043 13.146C111.656 14.4605 112.411 15.8537 113.721 16.2422L120.865 18.3612C122.175 18.7496 123.563 17.992 123.95 16.6776C124.337 15.3632 123.582 13.97 122.272 13.5815L115.128 11.4625C112.58 10.7068 110.978 7.97073 111.773 5.2702C112.519 2.73697 115.277 1.11207 117.944 1.90315L125.088 4.0221C127.515 4.74205 129.007 7.28319 128.529 9.83391C128.505 9.96081 128.477 10.0877 128.443 10.2144L126.062 9.50811Z" fill="#FAFAFA"/>
<path d="M149.452 30.4297L153.791 24.3521C154.586 23.2378 154.328 21.6732 153.218 20.8749L147.162 16.5213C146.051 15.7233 144.492 15.982 143.697 17.0962L139.359 23.1738C138.563 24.2881 138.821 25.8529 139.932 26.651L145.988 31.0046C147.098 31.8027 148.657 31.544 149.452 30.4297ZM155.81 25.8032L151.471 31.881C149.881 34.1095 146.762 34.6268 144.542 33.0305L138.486 28.6769C136.245 27.0661 135.735 23.9714 137.34 21.7227L141.678 15.6449C143.269 13.4165 146.387 12.8992 148.608 14.4955L154.664 18.8491C156.803 20.3873 157.385 23.595 155.81 25.8032Z" fill="#FAFAFA"/>
<path fill-rule="evenodd" clip-rule="evenodd" d="M149.137 30.2028L153.475 24.1251C154.146 23.1856 153.928 21.8642 152.992 21.1912L146.936 16.8377C146 16.1647 144.683 16.3833 144.012 17.3226L139.674 23.4004C139.004 24.3399 139.221 25.6613 140.157 26.3343L146.214 30.6877C147.15 31.3607 148.466 31.1422 149.137 30.2028ZM156.125 26.0298L151.787 32.1074C150.071 34.5108 146.71 35.0682 144.316 33.3467L138.259 28.9933C135.844 27.2573 135.295 23.9193 137.025 21.4957L141.363 15.418C143.078 13.0147 146.439 12.4572 148.834 14.1787L154.89 18.5322C157.2 20.1936 157.827 23.6437 156.125 26.0298ZM153.79 24.3519L149.452 30.4295C148.657 31.5437 147.098 31.8024 145.988 31.0043L139.931 26.6508C138.821 25.8527 138.563 24.2878 139.359 23.1736L143.697 17.096C144.492 15.9817 146.051 15.723 147.162 16.5211L153.218 20.8747C154.328 21.6729 154.586 23.2376 153.79 24.3519ZM151.471 31.8808L155.81 25.803C157.385 23.5947 156.803 20.387 154.664 18.8488L148.608 14.4953C146.387 12.899 143.269 13.4162 141.678 15.6447L137.34 21.7224C135.735 23.9712 136.245 27.0658 138.485 28.6766L144.542 33.0302C146.762 34.6265 149.881 34.1093 151.471 31.8808Z" fill="#FAFAFA"/>
<path d="M170.126 36.0414L166.076 38.9289L173.27 49.0849L171.246 50.5287L164.053 40.3726L157.981 44.7039L156.542 42.6727L170.711 32.5664L180.782 46.7849L178.756 48.2285L170.126 36.0414Z" fill="#FAFAFA"/>
<path fill-rule="evenodd" clip-rule="evenodd" d="M173.812 49.1766L171.155 51.0716L163.961 40.9155L157.89 45.2468L156.001 42.5809L170.802 32.0234L181.322 46.8766L178.666 48.7715L170.034 36.5843L166.618 39.0206L173.812 49.1766ZM170.126 36.0414L178.756 48.2285L180.782 46.7849L170.711 32.5664L156.543 42.6727L157.981 44.7038L164.053 40.3725L171.246 50.5287L173.27 49.0848L166.077 38.9289L170.126 36.0414Z" fill="#FAFAFA"/>
<path d="M190.614 76.747L188.447 69.5937L174.192 73.94L173.47 71.5556L187.725 67.2093L185.56 60.0559L187.936 59.3315L192.99 76.0226L190.614 76.747Z" fill="#FAFAFA"/>
<path fill-rule="evenodd" clip-rule="evenodd" d="M190.354 77.2331L188.189 70.0798L173.933 74.4259L172.986 71.2964L187.243 66.9501L185.076 59.7969L188.195 58.8462L193.474 76.2823L190.354 77.2331ZM187.725 67.2096L173.47 71.5559L174.192 73.9403L188.447 69.594L190.613 76.7473L192.99 76.0229L187.936 59.3318L185.56 60.0562L187.725 67.2096Z" fill="#FAFAFA"/>
<path d="M96.2239 32.0249C72.4421 32.0249 51.4997 44.225 39.272 62.7288L75.6077 81.6367C80.7155 76.0342 88.0608 72.5205 96.2239 72.5205C109.946 72.5205 121.357 82.4491 123.714 95.5383L160.68 77.866C151.349 51.1686 126.014 32.0249 96.2239 32.0249Z" fill="#FFD700"/>
<path d="M32.223 76.6035C29.4513 84.0595 27.936 92.1301 27.936 100.556C27.936 108.872 29.4121 116.843 32.1157 124.218L71.2167 113.066C69.3425 109.3 68.288 105.052 68.288 100.556C68.288 96.0598 69.3428 91.8107 71.2173 88.0444L32.223 76.6035Z" fill="#FFD700"/>
<path fill-rule="evenodd" clip-rule="evenodd" d="M117.952 100.556C117.952 112.599 108.224 122.361 96.2241 122.361C84.224 122.361 74.4961 112.599 74.4961 100.556C74.4961 88.513 84.224 78.7505 96.2241 78.7505C108.224 78.7505 117.952 88.513 117.952 100.556ZM96.2241 114.574C103.938 114.574 110.192 108.298 110.192 100.556C110.192 92.8141 103.938 86.5381 96.2241 86.5381C88.5097 86.5381 82.2561 92.8141 82.2561 100.556C82.2561 108.298 88.5097 114.574 96.2241 114.574Z" fill="#FFD700"/>
<path d="M96.2239 169.086C126.131 169.086 151.547 149.793 160.789 122.932L123.772 105.236C121.552 118.492 110.063 128.591 96.2239 128.591C88.0608 128.591 80.7155 125.078 75.6077 119.475L39.272 138.383C51.4997 156.886 72.4421 169.086 96.2239 169.086Z" fill="#FFD700"/>
<path d="M124.087 98.5156C124.136 99.1893 124.16 99.8694 124.16 100.555C124.16 101.119 124.144 101.679 124.111 102.234L163.963 109.292C164.326 106.431 164.512 103.515 164.512 100.555C164.512 97.4726 164.309 94.4371 163.916 91.4619L124.087 98.5156Z" fill="#FFD700"/>
<path fill-rule="evenodd" clip-rule="evenodd" d="M96.224 175.316C137.367 175.316 170.72 141.845 170.72 100.555C170.72 79.7975 162.29 61.0153 148.678 47.4691C145.07 43.8779 141.097 40.6549 136.821 37.8604C125.142 30.2289 111.199 25.7944 96.224 25.7944C55.081 25.7944 21.728 59.2662 21.728 100.555C21.728 141.845 55.081 175.316 96.224 175.316ZM32.223 76.6031C34.0509 71.6862 36.4253 67.0365 39.2721 62.7284C51.4999 44.2246 72.4423 32.0245 96.224 32.0245C126.014 32.0245 151.349 51.1682 160.68 77.8657C162.2 82.2141 163.295 86.763 163.916 91.4621C164.309 94.4372 164.512 97.4727 164.512 100.555C164.512 103.515 164.326 106.431 163.963 109.292C163.365 114.005 162.29 118.568 160.789 122.932C151.547 149.793 126.131 169.086 96.224 169.086C72.4423 169.086 51.4999 156.886 39.2721 138.383C36.3693 133.99 33.9576 129.242 32.1157 124.217C29.4121 116.842 27.936 108.872 27.936 100.555C27.936 92.1298 29.4512 84.0592 32.223 76.6031Z" fill="#FAFAFA"/>
<path d="M39.2723 62.7285C36.4255 67.0366 34.0511 71.6863 32.2231 76.6032L71.2175 88.0442C72.3829 85.7027 73.8653 83.5479 75.6081 81.6364L39.2723 62.7285Z" fill="#FAFAFA"/>
<path d="M75.6079 119.475C73.8648 117.563 72.3822 115.407 71.2167 113.065L32.1157 124.217C33.9576 129.241 36.3693 133.989 39.2721 138.382L75.6079 119.475Z" fill="#FAFAFA"/>
<path fill-rule="evenodd" clip-rule="evenodd" d="M68.2881 100.555C68.2881 105.051 69.3425 109.3 71.2167 113.066C72.3823 115.407 73.8649 117.563 75.6079 119.475C80.7157 125.077 88.061 128.591 96.2241 128.591C110.064 128.591 121.553 118.491 123.773 105.236C123.937 104.252 124.051 103.25 124.111 102.234C124.143 101.679 124.16 101.119 124.16 100.555C124.16 99.8695 124.136 99.1893 124.087 98.5157C124.015 97.5074 123.89 96.5138 123.714 95.5379C121.357 82.4486 109.946 72.52 96.2241 72.52C88.061 72.52 80.7157 76.0338 75.6079 81.6362C73.8652 83.5477 72.3827 85.7026 71.2173 88.044C69.3428 91.8102 68.2881 96.0593 68.2881 100.555ZM96.2241 122.361C108.224 122.361 117.952 112.598 117.952 100.555C117.952 88.5127 108.224 78.7501 96.2241 78.7501C84.224 78.7501 74.4961 88.5127 74.4961 100.555C74.4961 112.598 84.224 122.361 96.2241 122.361Z" fill="#FAFAFA"/>
<path fill-rule="evenodd" clip-rule="evenodd" d="M110.192 100.556C110.192 108.298 103.938 114.573 96.2239 114.573C88.5095 114.573 82.2559 108.298 82.2559 100.556C82.2559 92.8141 88.5095 86.5381 96.2239 86.5381C103.938 86.5381 110.192 92.8141 110.192 100.556ZM96.2239 108.343C100.51 108.343 103.984 104.857 103.984 100.556C103.984 96.2548 100.51 92.7682 96.2239 92.7682C91.9382 92.7682 88.4639 96.2548 88.4639 100.556C88.4639 104.857 91.9382 108.343 96.2239 108.343Z" fill="#FAFAFA"/>
<path d="M123.714 95.538C123.89 96.5139 124.015 97.5075 124.087 98.5158L163.916 91.4621C163.295 86.7631 162.2 82.2142 160.68 77.8657L123.714 95.538Z" fill="#FAFAFA"/>
<path d="M124.111 102.234C124.051 103.25 123.937 104.252 123.772 105.236L160.789 122.932C162.29 118.568 163.365 114.005 163.963 109.292L124.111 102.234Z" fill="#FAFAFA"/>
</g>
<defs>
<clipPath id="clip0_234_494">
<rect width="194" height="176" fill="white"/>
</clipPath>
</defs>
</svg>
