<svg width="40" height="40" viewBox="0 0 40 40" fill="none" xmlns="http://www.w3.org/2000/svg">
<g clip-path="url(#clip0_232_283)">
<path d="M36.1115 13.9645C37.1801 14.2508 37.812 15.3454 37.5257 16.414C37.2394 17.4825 36.1448 18.1145 35.0762 17.8282L22.5192 14.4635L23.5545 10.5998L36.1115 13.9645ZM23.3464 22.9674C24.415 23.2537 25.0469 24.3483 24.7606 25.4169C24.4743 26.4855 23.3797 27.1174 22.3111 26.8311L18.4474 25.7958C17.3789 25.5095 16.7469 24.4149 17.0332 23.3463C17.3195 22.2778 18.4142 21.6458 19.4827 21.9321L23.3464 22.9674ZM28.2454 20.139C27.9591 21.2075 26.8645 21.8395 25.7959 21.5532L22.8981 20.7767C21.8296 20.4904 21.1976 19.3958 21.4839 18.3272C21.7702 17.2587 22.8648 16.6267 23.9334 16.913L26.8312 17.6895C27.8997 17.9758 28.5317 19.0704 28.2454 20.139ZM19.8617 28.2453C20.9302 28.5316 21.5622 29.6263 21.2759 30.6948C20.9895 31.7634 19.8949 32.3954 18.8264 32.109L14.9627 31.0738C13.8941 30.7874 13.2621 29.6928 13.5485 28.6243C13.8348 27.5557 14.9294 26.9237 15.9979 27.2101L19.8617 28.2453ZM16.102 21.0263L16.1382 21.036C15.6601 21.5161 15.2906 22.1224 15.1014 22.8287C14.8878 23.6256 14.932 24.4268 15.1775 25.1526C13.5335 25.275 12.0679 26.4223 11.6166 28.1066C11.4273 28.813 11.4382 29.5211 11.6182 30.1776L11.099 30.0385C5.76223 28.6085 2.59792 23.1278 4.0279 17.791L5.02597 14.0662C5.71184 11.5065 7.39047 9.32278 9.68687 7.99695L10.5748 7.4843C12.4135 6.4176 14.6 6.12995 16.6466 6.67832L18.2766 7.11508C20.4076 7.6861 21.676 9.88298 21.105 12.0141L19.6815 17.3266C19.324 18.6608 17.9538 19.4519 16.6196 19.0944C15.2854 18.7369 14.4944 17.3667 14.8518 16.0326L15.7577 12.6518C15.9001 12.1206 15.5819 11.5694 15.0506 11.4271C14.5193 11.2847 13.9682 11.6029 13.8259 12.1342L12.92 15.5149C12.2762 17.9177 13.6992 20.3825 16.102 21.0263Z" fill="#212121"/>
</g>
<defs>
<clipPath id="clip0_232_283">
<rect width="32" height="32" fill="white" transform="translate(8.68652 0.404297) rotate(15)"/>
</clipPath>
</defs>
</svg>
