<svg width="14" height="16" viewBox="0 0 14 16" fill="none" xmlns="http://www.w3.org/2000/svg">
<g clip-path="url(#clip0_815_141)">
<path d="M11.3809 2.61855C10.6184 1.85605 9.38086 1.85605 8.61836 2.61855L2.86836 8.36855C1.55273 9.68418 1.55273 11.8154 2.86836 13.1311C4.18398 14.4467 6.31523 14.4467 7.63086 13.1311L12.3809 8.38105C12.7215 8.04043 13.2777 8.04043 13.6184 8.38105C13.959 8.72168 13.959 9.27793 13.6184 9.61855L8.86836 14.3686C6.86836 16.3686 3.63086 16.3686 1.63086 14.3686C-0.369141 12.3686 -0.369141 9.13105 1.63086 7.13105L7.38086 1.38105C8.82773 -0.0658203 11.1715 -0.0658203 12.6184 1.38105C14.0652 2.82793 14.0652 5.17168 12.6184 6.61855L7.11836 12.1186C6.22461 13.0123 4.77461 13.0123 3.88086 12.1186C2.98711 11.2248 2.98711 9.77481 3.88086 8.88105L8.38086 4.38105C8.72148 4.04043 9.27773 4.04043 9.61836 4.38105C9.95898 4.72168 9.95898 5.27793 9.61836 5.61855L5.11836 10.1186C4.90898 10.3279 4.90898 10.6717 5.11836 10.8811C5.32773 11.0904 5.67148 11.0904 5.88086 10.8811L11.3809 5.38105C12.1434 4.61855 12.1434 3.38105 11.3809 2.61855Z" fill="black"/>
</g>
<defs>
<clipPath id="clip0_815_141">
<rect width="14" height="16" fill="white"/>
</clipPath>
</defs>
</svg>
