<svg width="10" height="16" viewBox="0 0 10 16" fill="none" xmlns="http://www.w3.org/2000/svg">
<g clip-path="url(#clip0_564_921)">
<path d="M5.8 14.4C5.8 14.125 5.70208 13.8896 5.50625 13.6938C5.31042 13.4979 5.075 13.4 4.8 13.4C4.525 13.4 4.28958 13.4979 4.09375 13.6938C3.89792 13.8896 3.8 14.125 3.8 14.4C3.8 14.675 3.89792 14.9104 4.09375 15.1062C4.28958 15.3021 4.525 15.4 4.8 15.4C5.075 15.4 5.31042 15.3021 5.50625 15.1062C5.70208 14.9104 5.8 14.675 5.8 14.4ZM8.4 12.4V3.6C8.4 3.49167 8.36042 3.39792 8.28125 3.31875C8.20208 3.23958 8.10833 3.2 8 3.2H1.6C1.49167 3.2 1.39792 3.23958 1.31875 3.31875C1.23958 3.39792 1.2 3.49167 1.2 3.6V12.4C1.2 12.5083 1.23958 12.6021 1.31875 12.6813C1.39792 12.7604 1.49167 12.8 1.6 12.8H8C8.10833 12.8 8.20208 12.7604 8.28125 12.6813C8.36042 12.6021 8.4 12.5083 8.4 12.4ZM6 1.8C6 1.66667 5.93333 1.6 5.8 1.6H3.8C3.66667 1.6 3.6 1.66667 3.6 1.8C3.6 1.93333 3.66667 2 3.8 2H5.8C5.93333 2 6 1.93333 6 1.8ZM9.6 1.6V14.4C9.6 14.8333 9.44167 15.2083 9.125 15.525C8.80833 15.8417 8.43333 16 8 16H1.6C1.16667 16 0.791667 15.8417 0.475 15.525C0.158333 15.2083 0 14.8333 0 14.4V1.6C0 1.16667 0.158333 0.791667 0.475 0.475C0.791667 0.158333 1.16667 0 1.6 0H8C8.43333 0 8.80833 0.158333 9.125 0.475C9.44167 0.791667 9.6 1.16667 9.6 1.6Z" fill="#E0E0E0"/>
</g>
<defs>
<clipPath id="clip0_564_921">
<rect width="9.6" height="16" fill="white"/>
</clipPath>
</defs>
</svg>
