<svg width="16" height="16" viewBox="0 0 16 16" fill="none" xmlns="http://www.w3.org/2000/svg">
<path d="M3 3C3 1.89688 3.89687 1 5 1H14C15.1031 1 16 1.89688 16 3V13C16 14.1031 15.1031 15 14 15H2.5C1.11875 15 0 13.8813 0 12.5V4C0 3.44688 0.446875 3 1 3C1.55313 3 2 3.44688 2 4V12.5C2 12.775 2.225 13 2.5 13C2.775 13 3 12.775 3 12.5V3ZM5 3.75V6.25C5 6.66563 5.33437 7 5.75 7H9.25C9.66562 7 10 6.66563 10 6.25V3.75C10 3.33437 9.66562 3 9.25 3H5.75C5.33437 3 5 3.33437 5 3.75ZM11.5 3.5C11.5 3.775 11.725 4 12 4H13.5C13.775 4 14 3.775 14 3.5C14 3.225 13.775 3 13.5 3H12C11.725 3 11.5 3.225 11.5 3.5ZM11.5 6.5C11.5 6.775 11.725 7 12 7H13.5C13.775 7 14 6.775 14 6.5C14 6.225 13.775 6 13.5 6H12C11.725 6 11.5 6.225 11.5 6.5ZM5 9.5C5 9.775 5.225 10 5.5 10H13.5C13.775 10 14 9.775 14 9.5C14 9.225 13.775 9 13.5 9H5.5C5.225 9 5 9.225 5 9.5ZM5 12.5C5 12.775 5.225 13 5.5 13H13.5C13.775 13 14 12.775 14 12.5C14 12.225 13.775 12 13.5 12H5.5C5.225 12 5 12.225 5 12.5Z" fill="#E0E0E0"/>
</svg>
