<svg width="16" height="16" viewBox="0 0 16 16" fill="none" xmlns="http://www.w3.org/2000/svg">
<g clip-path="url(#clip0_564_889)">
<path d="M7.75 0.25C3.46978 0.25 0 3.71978 0 8C0 12.2802 3.46978 15.75 7.75 15.75C12.0302 15.75 15.5 12.2802 15.5 8C15.5 3.71978 12.0302 0.25 7.75 0.25ZM11.3422 5.52063C11.2256 6.74609 10.721 9.71994 10.4641 11.0925C10.3555 11.6733 10.1416 11.868 9.9345 11.887C9.4845 11.9285 9.14269 11.5896 8.70678 11.3039C8.02469 10.8567 7.63934 10.5784 6.97722 10.1421C6.21206 9.63787 6.70809 9.36084 7.14416 8.90772C7.25828 8.78919 9.24125 6.98553 9.27962 6.82191C9.28441 6.80144 9.289 6.72503 9.24356 6.68491C9.19812 6.64478 9.13138 6.65838 9.08309 6.66928C9.0147 6.68482 7.92503 7.40505 5.81409 8.82997C5.50482 9.04234 5.22468 9.14582 4.97366 9.14041C4.69694 9.13444 4.16466 8.98397 3.76894 8.85531C3.28359 8.69756 2.89784 8.61416 2.93144 8.34622C2.94894 8.20664 3.14112 8.06393 3.508 7.91809C5.76729 6.93376 7.27383 6.2848 8.02763 5.97122C10.1799 5.076 10.6271 4.9205 10.9186 4.91531C10.9827 4.91425 11.1261 4.93013 11.2189 5.00547C11.2807 5.05914 11.32 5.13404 11.3292 5.21534C11.3449 5.3163 11.3493 5.4187 11.3422 5.52063Z" fill="#E0E0E0"/>
</g>
<defs>
<clipPath id="clip0_564_889">
<rect width="15.5" height="16" fill="white"/>
</clipPath>
</defs>
</svg>
