<svg width="18" height="16" viewBox="0 0 18 16" fill="none" xmlns="http://www.w3.org/2000/svg">
<path d="M17.1769 3.87759C16.9806 3.13853 16.4023 2.55647 15.668 2.35894C14.337 2 9.00014 2 9.00014 2C9.00014 2 3.66327 2 2.3323 2.35894C1.59802 2.5565 1.0197 3.13853 0.823422 3.87759C0.466797 5.21719 0.466797 8.01213 0.466797 8.01213C0.466797 8.01213 0.466797 10.8071 0.823422 12.1467C1.0197 12.8857 1.59802 13.4435 2.3323 13.6411C3.66327 14 9.00014 14 9.00014 14C9.00014 14 14.337 14 15.668 13.6411C16.4023 13.4435 16.9806 12.8857 17.1769 12.1467C17.5335 10.8071 17.5335 8.01213 17.5335 8.01213C17.5335 8.01213 17.5335 5.21719 17.1769 3.87759ZM7.25467 10.5497V5.47453L11.7153 8.01219L7.25467 10.5497Z" fill="#E0E0E0"/>
</svg>
