<svg width="14" height="16" viewBox="0 0 14 16" fill="none" xmlns="http://www.w3.org/2000/svg">
<g clip-path="url(#clip0_210_806)">
<path d="M0.293945 7.29365C-0.0966797 7.68428 -0.0966797 8.31865 0.293945 8.70928L5.29395 13.7093C5.68457 14.0999 6.31895 14.0999 6.70957 13.7093C7.1002 13.3187 7.1002 12.6843 6.70957 12.2937L3.4127 8.9999H13.0002C13.5533 8.9999 14.0002 8.55303 14.0002 7.9999C14.0002 7.44678 13.5533 6.9999 13.0002 6.9999H3.41582L6.70645 3.70615C7.09707 3.31553 7.09707 2.68115 6.70645 2.29053C6.31582 1.8999 5.68145 1.8999 5.29082 2.29053L0.29082 7.29053L0.293945 7.29365Z" fill="#212121"/>
</g>
<defs>
<clipPath id="clip0_210_806">
<rect width="14" height="16" fill="white"/>
</clipPath>
</defs>
</svg>
