<svg width="20" height="16" viewBox="0 0 20 16" fill="none" xmlns="http://www.w3.org/2000/svg">
<path d="M4.5 15C2.01562 15 0 12.9844 0 10.5C0 8.5375 1.25625 6.86875 3.00625 6.25313C3.00312 6.16875 3 6.08437 3 6C3 3.2375 5.2375 1 8 1C9.85312 1 11.4688 2.00625 12.3344 3.50625C12.8269 3.17572 13.4068 2.99947 14 3C15.6562 3 17 4.34375 17 6C17 6.38125 16.9281 6.74375 16.8 7.08125C18.625 7.45 20 9.06563 20 11C20 13.2094 18.2094 15 16 15H4.5ZM6.96875 9.78125L9.46875 12.2812C9.7625 12.575 10.2375 12.575 10.5281 12.2812L13.0281 9.78125C13.3219 9.4875 13.3219 9.0125 13.0281 8.72188C12.7344 8.43125 12.2594 8.42813 11.9688 8.72188L10.75 9.94063V5.75C10.75 5.33437 10.4156 5 10 5C9.58438 5 9.25 5.33437 9.25 5.75V9.94063L8.03125 8.72188C7.7375 8.42813 7.2625 8.42813 6.97188 8.72188C6.68125 9.01562 6.67813 9.49063 6.97188 9.78125H6.96875Z" fill="#212121"/>
</svg>
